<?xml version="1.0" encoding="UTF-8"?>
<!DOCTYPE svg PUBLIC "-//W3C//DTD SVG 1.1//EN" "http://www.w3.org/Graphics/SVG/1.1/DTD/svg11.dtd">
<svg xmlns="http://www.w3.org/2000/svg" version="1.1" width="100px" height="100px" style="shape-rendering:geometricPrecision; text-rendering:geometricPrecision; image-rendering:optimizeQuality; fill-rule:evenodd; clip-rule:evenodd" xmlns:xlink="http://www.w3.org/1999/xlink">
<g><path style="opacity:0.898" fill="#99765b" d="M 44.5,3.5 C 47.8499,3.33499 51.1832,3.50166 54.5,4C 63.7215,8.85144 73.3882,12.5181 83.5,15C 87.3253,45.1837 75.992,68.0171 49.5,83.5C 23.57,68.3094 11.9033,45.6427 14.5,15.5C 25.2455,13.119 35.2455,9.11896 44.5,3.5 Z M 45.5,8.5 C 48.1873,8.33591 50.854,8.50258 53.5,9C 61.4461,13.3151 69.7795,16.6484 78.5,19C 80.8419,44.1521 71.1752,63.6521 49.5,77.5C 28.3841,63.9353 18.3841,44.602 19.5,19.5C 28.746,16.9807 37.4127,13.314 45.5,8.5 Z"/></g>
<g><path style="opacity:0.947" fill="#9a765a" d="M 46.5,28.5 C 50.0134,27.8757 52.8467,28.8757 55,31.5C 55.5893,34.7153 55.0893,37.7153 53.5,40.5C 54.1705,43.8461 54.8372,47.1794 55.5,50.5C 51.5,50.5 47.5,50.5 43.5,50.5C 44.1628,47.1794 44.8295,43.8461 45.5,40.5C 45.0694,38.2456 44.4028,36.0789 43.5,34C 43.8627,31.8077 44.8627,29.9744 46.5,28.5 Z"/></g>
<g><path style="opacity:0.922" fill="#99765b" d="M -0.5,49.5 C -0.5,46.8333 -0.5,44.1667 -0.5,41.5C 8.346,36.7984 12.5127,39.4651 12,49.5C 15.009,53.3394 18.1756,57.0061 21.5,60.5C 19.5787,61.641 17.5787,61.8077 15.5,61C 11.3194,55.2837 5.98604,51.4504 -0.5,49.5 Z M 4.5,44.5 C 6.33702,44.6395 6.67036,45.3061 5.5,46.5C 4.70245,46.0431 4.36912,45.3764 4.5,44.5 Z"/></g>
<g><path style="opacity:0.906" fill="#99765b" d="M 99.5,41.5 C 99.5,44.1667 99.5,46.8333 99.5,49.5C 93.014,51.4504 87.6806,55.2837 83.5,61C 81.4213,61.8077 79.4213,61.641 77.5,60.5C 80.8244,57.0061 83.991,53.3394 87,49.5C 86.4873,39.4651 90.654,36.7984 99.5,41.5 Z M 92.5,44.5 C 94.337,44.6395 94.6704,45.3061 93.5,46.5C 92.7025,46.0431 92.3691,45.3764 92.5,44.5 Z"/></g>
<g><path style="opacity:0.937" fill="#98765b" d="M 3.5,63.5 C 6.1873,63.3359 8.85397,63.5026 11.5,64C 12.3567,64.6891 13.0233,65.5224 13.5,66.5C 17.7956,67.3275 22.1289,67.8275 26.5,68C 27.5,69 28.5,70 29.5,71C 24.1358,71.1705 18.8025,71.6705 13.5,72.5C 13.0233,73.4776 12.3567,74.3109 11.5,75C 1.43377,76.4671 -1.2329,72.6338 3.5,63.5 Z M 6.5,68.5 C 8.33702,68.6395 8.67036,69.3061 7.5,70.5C 6.70245,70.0431 6.36912,69.3764 6.5,68.5 Z"/></g>
<g><path style="opacity:0.942" fill="#98765b" d="M 87.5,63.5 C 97.4874,62.3319 100.154,66.1653 95.5,75C 92.8333,75.6667 90.1667,75.6667 87.5,75C 86.6433,74.3109 85.9767,73.4776 85.5,72.5C 80.1975,71.6705 74.8642,71.1705 69.5,71C 70.5,70 71.5,69 72.5,68C 76.8711,67.8275 81.2044,67.3275 85.5,66.5C 86.1925,65.4822 86.8592,64.4822 87.5,63.5 Z M 90.5,68.5 C 92.337,68.6395 92.6704,69.3061 91.5,70.5C 90.7025,70.0431 90.3691,69.3764 90.5,68.5 Z"/></g>
<g><path style="opacity:0.925" fill="#99765b" d="M 23.5,75.5 C 27.1817,75.3347 30.8484,75.5014 34.5,76C 35.5,77 36.5,78 37.5,79C 25.6816,78.1513 19.5149,83.6513 19,95.5C 10,100.167 6.33333,97.5 8,87.5C 14.4097,85.2747 19.5763,81.2747 23.5,75.5 Z M 12.5,90.5 C 14.337,90.6395 14.6704,91.3061 13.5,92.5C 12.7025,92.0431 12.3691,91.3764 12.5,90.5 Z"/></g>
<g><path style="opacity:0.92" fill="#98765b" d="M 64.5,75.5 C 68.1817,75.3347 71.8484,75.5014 75.5,76C 78.5,79 81.5,82 84.5,85C 91.1307,85.487 93.2974,88.987 91,95.5C 82.2909,100.139 78.2909,97.472 79,87.5C 77.1877,84.7198 75.021,82.2198 72.5,80C 68.8333,79.6667 65.1667,79.3333 61.5,79C 62.7101,77.9609 63.7101,76.7942 64.5,75.5 Z M 84.5,90.5 C 86.337,90.6395 86.6704,91.3061 85.5,92.5C 84.7025,92.0431 84.3691,91.3764 84.5,90.5 Z"/></g>
</svg>
