<?xml version="1.0" encoding="UTF-8"?>
<!DOCTYPE svg PUBLIC "-//W3C//DTD SVG 1.1//EN" "http://www.w3.org/Graphics/SVG/1.1/DTD/svg11.dtd">
<svg xmlns="http://www.w3.org/2000/svg" version="1.1" width="100px" height="100px" style="shape-rendering:geometricPrecision; text-rendering:geometricPrecision; image-rendering:optimizeQuality; fill-rule:evenodd; clip-rule:evenodd" xmlns:xlink="http://www.w3.org/1999/xlink">
<g><path style="opacity:0.998" fill="#99765b" d="M 99.5,7.5 C 99.5,36.1667 99.5,64.8333 99.5,93.5C 66.1667,93.5 32.8333,93.5 -0.5,93.5C -0.5,64.8333 -0.5,36.1667 -0.5,7.5C 0.28913,7.21719 0.955796,6.71719 1.5,6C 33.5,5.33333 65.5,5.33333 97.5,6C 98.0442,6.71719 98.7109,7.21719 99.5,7.5 Z M 5.5,9.5 C 34.8352,9.33335 64.1686,9.50002 93.5,10C 95.2785,12.1354 95.9452,14.6354 95.5,17.5C 64.8333,17.5 34.1667,17.5 3.5,17.5C 3.1072,14.4867 3.77386,11.8201 5.5,9.5 Z M 3.5,21.5 C 34.1667,21.5 64.8333,21.5 95.5,21.5C 95.5,44.1667 95.5,66.8333 95.5,89.5C 64.8333,89.5 34.1667,89.5 3.5,89.5C 3.5,66.8333 3.5,44.1667 3.5,21.5 Z"/></g>
<g><path style="opacity:0.892" fill="#9a765a" d="M 56.5,28.5 C 57.9733,29.072 59.3066,29.9054 60.5,31C 54.3378,46.1497 48.1711,61.3164 42,76.5C 40.0355,77.885 38.2021,77.7184 36.5,76C 42.7768,59.953 49.4435,44.1196 56.5,28.5 Z"/></g>
<g><path style="opacity:0.879" fill="#99765b" d="M 30.5,40.5 C 33.0014,40.8256 34.1681,42.1589 34,44.5C 30.414,46.7093 26.914,49.0426 23.5,51.5C 26.5,53.3333 29.5,55.1667 32.5,57C 33.3802,58.3561 33.7135,59.8561 33.5,61.5C 27.4302,60.1366 21.7635,57.6366 16.5,54C 15.1667,52.3333 15.1667,50.6667 16.5,49C 21.3968,46.3922 26.0635,43.5589 30.5,40.5 Z"/></g>
<g><path style="opacity:0.889" fill="#9a755a" d="M 65.5,41.5 C 72.779,42.9735 79.1123,46.3068 84.5,51.5C 79.1123,56.6932 72.779,60.0265 65.5,61.5C 65.3433,60.1266 65.51,58.7932 66,57.5C 69.3001,55.6976 72.4668,53.6976 75.5,51.5C 71.6183,49.0659 67.9516,46.3993 64.5,43.5C 64.8627,42.8165 65.1961,42.1499 65.5,41.5 Z"/></g>
</svg>
