<?xml version="1.0" encoding="UTF-8"?>
<!DOCTYPE svg PUBLIC "-//W3C//DTD SVG 1.1//EN" "http://www.w3.org/Graphics/SVG/1.1/DTD/svg11.dtd">
<svg xmlns="http://www.w3.org/2000/svg" version="1.1" width="64px" height="64px" style="shape-rendering:geometricPrecision; text-rendering:geometricPrecision; image-rendering:optimizeQuality; fill-rule:evenodd; clip-rule:evenodd" xmlns:xlink="http://www.w3.org/1999/xlink">
<g><path style="opacity:0.915" fill="#98765b" d="M 40.5,3.5 C 53.3202,2.15271 58.8202,7.81938 57,20.5C 53.3449,27.0702 47.8449,29.2368 40.5,27C 33.9298,23.3449 31.7632,17.8449 34,10.5C 35.6941,7.64238 37.8607,5.30904 40.5,3.5 Z M 42.5,8.5 C 43.3195,11.3054 43.8195,14.3054 44,17.5C 50.4868,21.3372 49.9868,22.8372 42.5,22C 38.8759,19.8387 37.7093,16.672 39,12.5C 39.6897,10.6498 40.8564,9.31643 42.5,8.5 Z M 47.5,8.5 C 51.6374,10.1078 53.1374,13.1078 52,17.5C 48.5056,15.5266 47.0056,12.5266 47.5,8.5 Z"/></g>
<g><path style="opacity:0.977" fill="#99775b" d="M 13.5,3.5 C 23.4874,2.33194 26.154,6.16527 21.5,15C 23.676,15.1629 25.5093,15.9963 27,17.5C 27.4974,20.146 27.6641,22.8127 27.5,25.5C 26.1667,25.5 24.8333,25.5 23.5,25.5C 23.8423,21.1757 21.8423,19.1757 17.5,19.5C 13.1577,19.1757 11.1577,21.1757 11.5,25.5C 10.1667,25.5 8.83333,25.5 7.5,25.5C 7.33591,22.8127 7.50258,20.146 8,17.5C 9.4907,15.9963 11.324,15.1629 13.5,15C 10.8747,11.1681 10.8747,7.33476 13.5,3.5 Z M 16.5,8.5 C 18.337,8.63945 18.6704,9.30612 17.5,10.5C 16.7025,10.0431 16.3691,9.37644 16.5,8.5 Z"/></g>
<g><path style="opacity:0.995" fill="#98765b" d="M 9.5,27.5 C 16.1667,27.5 22.8333,27.5 29.5,27.5C 29.5,38.1667 29.5,48.8333 29.5,59.5C 20.8333,59.5 12.1667,59.5 3.5,59.5C 3.33358,50.8269 3.50025,42.1603 4,33.5C 6.03961,31.6298 7.87294,29.6298 9.5,27.5 Z M 15.5,31.5 C 18.8333,31.5 22.1667,31.5 25.5,31.5C 25.5,39.5 25.5,47.5 25.5,55.5C 19.5,55.5 13.5,55.5 7.5,55.5C 7.5,50.1667 7.5,44.8333 7.5,39.5C 10.1667,39.5 12.8333,39.5 15.5,39.5C 15.5,36.8333 15.5,34.1667 15.5,31.5 Z M 10.5,33.5 C 11.7733,34.0768 11.7733,34.7435 10.5,35.5C 9.53705,35.0302 9.53705,34.3635 10.5,33.5 Z"/></g>
<g><path style="opacity:0.994" fill="#98765b" d="M 47.5,29.5 C 51.5,29.5 55.5,29.5 59.5,29.5C 59.5,39.5 59.5,49.5 59.5,59.5C 50.1667,59.5 40.8333,59.5 31.5,59.5C 31.5,54.8333 31.5,50.1667 31.5,45.5C 34.1667,45.5 36.8333,45.5 39.5,45.5C 39.5,42.8333 39.5,40.1667 39.5,37.5C 42.1667,37.5 44.8333,37.5 47.5,37.5C 47.5,34.8333 47.5,32.1667 47.5,29.5 Z M 51.5,33.5 C 52.8333,33.5 54.1667,33.5 55.5,33.5C 55.5,40.8333 55.5,48.1667 55.5,55.5C 54.1667,55.5 52.8333,55.5 51.5,55.5C 51.5,48.1667 51.5,40.8333 51.5,33.5 Z M 43.5,41.5 C 44.8333,41.5 46.1667,41.5 47.5,41.5C 47.5,46.1667 47.5,50.8333 47.5,55.5C 46.1667,55.5 44.8333,55.5 43.5,55.5C 43.5,50.8333 43.5,46.1667 43.5,41.5 Z M 35.5,49.5 C 36.8333,49.5 38.1667,49.5 39.5,49.5C 39.5,51.5 39.5,53.5 39.5,55.5C 38.1667,55.5 36.8333,55.5 35.5,55.5C 35.5,53.5 35.5,51.5 35.5,49.5 Z"/></g>
<g><path style="opacity:0.977" fill="#98765b" d="M 9.5,43.5 C 14.1667,43.5 18.8333,43.5 23.5,43.5C 23.5,44.8333 23.5,46.1667 23.5,47.5C 18.8333,47.5 14.1667,47.5 9.5,47.5C 9.5,46.1667 9.5,44.8333 9.5,43.5 Z"/></g>
<g><path style="opacity:0.977" fill="#98765b" d="M 9.5,49.5 C 14.1667,49.5 18.8333,49.5 23.5,49.5C 23.5,50.8333 23.5,52.1667 23.5,53.5C 18.8333,53.5 14.1667,53.5 9.5,53.5C 9.5,52.1667 9.5,50.8333 9.5,49.5 Z"/></g>
</svg>
