<?xml version="1.0" encoding="UTF-8"?>
<!DOCTYPE svg PUBLIC "-//W3C//DTD SVG 1.1//EN" "http://www.w3.org/Graphics/SVG/1.1/DTD/svg11.dtd">
<svg xmlns="http://www.w3.org/2000/svg" version="1.1" width="100px" height="100px" style="shape-rendering:geometricPrecision; text-rendering:geometricPrecision; image-rendering:optimizeQuality; fill-rule:evenodd; clip-rule:evenodd" xmlns:xlink="http://www.w3.org/1999/xlink">
<g><path style="opacity:0.912" fill="#99765b" d="M 28.5,-0.5 C 37.1667,-0.5 45.8333,-0.5 54.5,-0.5C 60.5654,0.689586 66.5654,2.52292 72.5,5C 76.2413,6.73791 79.408,9.23791 82,12.5C 83.462,25.4007 83.962,38.4007 83.5,51.5C 81.549,51.7733 80.049,51.1066 79,49.5C 67.7807,57.2647 55.2807,60.598 41.5,59.5C 27.7193,60.598 15.2193,57.2647 4,49.5C 2.65344,55.5984 3.8201,61.0984 7.5,66C 19.9221,73.2169 33.2555,76.2169 47.5,75C 48.3802,76.3561 48.7135,77.8561 48.5,79.5C 35.3603,80.7126 22.6936,78.8793 10.5,74C 8.24621,72.6233 6.07954,71.1233 4,69.5C 2.46034,76.5611 4.62701,82.0611 10.5,86C 20.303,90.7269 30.6363,93.2269 41.5,93.5C 46.1113,92.3897 50.778,92.2231 55.5,93C 56.727,94.5874 56.3937,95.9207 54.5,97C 38.5663,99.1361 23.233,97.1361 8.5,91C 4.97345,88.6378 1.97345,85.8045 -0.5,82.5C -0.5,59.8333 -0.5,37.1667 -0.5,14.5C 1.97345,11.1955 4.97345,8.3622 8.5,6C 14.9916,2.89064 21.6582,0.723978 28.5,-0.5 Z M 40.5,3.5 C 51.7104,3.64236 62.377,6.14236 72.5,11C 79.0961,14.9135 80.0961,19.9135 75.5,26C 65.0541,32.2575 53.7208,35.4242 41.5,35.5C 30.6363,35.2269 20.303,32.7269 10.5,28C 3.90392,24.0865 2.90392,19.0865 7.5,13C 17.7546,6.85772 28.7546,3.69106 40.5,3.5 Z M 3.5,29.5 C 10.9153,34.866 19.2487,38.0327 28.5,39C 43.6189,40.8581 58.2855,39.1915 72.5,34C 74.7538,32.6233 76.9205,31.1233 79,29.5C 80.9686,37.2679 78.8019,43.4345 72.5,48C 56.6655,55.0132 40.3322,56.6798 23.5,53C 17.7183,51.6306 12.3849,49.2973 7.5,46C 3.98429,41.105 2.65096,35.605 3.5,29.5 Z"/></g>
<g><path style="opacity:0.911" fill="#99765b" d="M 99.5,72.5 C 99.5,75.8333 99.5,79.1667 99.5,82.5C 93.5821,82.2056 92.4154,84.2056 96,88.5C 95.707,92.0025 93.8736,94.6692 90.5,96.5C 88.5708,95.6198 86.7374,94.6198 85,93.5C 82.9655,94.9442 82.1322,96.9442 82.5,99.5C 79.1667,99.5 75.8333,99.5 72.5,99.5C 73.1421,93.3243 71.1421,92.1577 66.5,96C 62.7972,95.6604 60.1305,93.6604 58.5,90C 60.0781,88.0284 60.9115,85.8617 61,83.5C 59.3005,82.5939 57.4672,82.2606 55.5,82.5C 55.5,79.1667 55.5,75.8333 55.5,72.5C 61.3214,72.7052 62.4881,70.7052 59,66.5C 59.3396,62.7972 61.3396,60.1305 65,58.5C 66.4341,58.9304 67.6008,59.7638 68.5,61C 69.5,61.6667 70.5,61.6667 71.5,61C 72.4061,59.3005 72.7394,57.4672 72.5,55.5C 75.8333,55.5 79.1667,55.5 82.5,55.5C 82.2948,61.3214 84.2948,62.4881 88.5,59C 92.0025,59.293 94.6692,61.1264 96.5,64.5C 95.7469,66.7534 94.4136,68.5867 92.5,70C 94.441,71.9028 96.7743,72.7361 99.5,72.5 Z M 88.5,66.5 C 86.5016,72.3403 88.5016,75.8403 94.5,77C 88.8161,78.8735 86.8161,82.7069 88.5,88.5C 82.7063,86.6953 79.2063,88.6953 78,94.5C 77.1931,92.4226 76.0264,90.5893 74.5,89C 71.6207,86.9624 68.954,87.1291 66.5,89.5C 66.1667,89.1667 65.8333,88.8333 65.5,88.5C 67.8709,86.046 68.0376,83.3793 66,80.5C 64.4107,78.9736 62.5774,77.8069 60.5,77C 62.1341,76.5065 63.8008,76.3398 65.5,76.5C 65.7239,74.2133 66.3906,72.0466 67.5,70C 67.0109,68.8615 66.6775,67.6948 66.5,66.5C 72.344,68.3281 76.1774,66.3281 78,60.5C 78.2022,62.2556 78.7022,63.9223 79.5,65.5C 81.6145,66.0339 83.4478,67.0339 85,68.5C 85.8159,67.1772 86.9826,66.5106 88.5,66.5 Z M 75.5,74.5 C 80.1585,74.0146 81.4919,75.848 79.5,80C 74.7282,80.8104 73.3948,78.9771 75.5,74.5 Z"/></g>
<g><path style="opacity:0.937" fill="#99775b" d="M 73.5,69.5 C 84.8598,68.71 88.1931,73.5434 83.5,84C 72.9641,87.997 68.4641,84.497 70,73.5C 70.6897,71.6498 71.8564,70.3164 73.5,69.5 Z M 75.5,74.5 C 73.3948,78.9771 74.7282,80.8104 79.5,80C 81.4919,75.848 80.1585,74.0146 75.5,74.5 Z"/></g>
</svg>
